<svg width="51" height="39" viewBox="0 0 51 39" version="1.1" xmlns="http://www.w3.org/2000/svg" xmlns:xlink="http://www.w3.org/1999/xlink">
<g id="Canvas" fill="none">
<g id="Frame" clip-path="url(#clip0)">
<g id="Ellipse">
<circle cx="15" cy="15" r="15" transform="translate(16 9)" fill="#00AEFF"/>
</g>
<g id="2">
<path d="M 8.829 15.93C 9.069 15.93 9.258 15.999 9.396 16.137C 9.54 16.269 9.612 16.446 9.612 16.668L 9.612 18L 0.684 18L 0.684 17.262C 0.684 17.112 0.714 16.956 0.774 16.794C 0.84 16.626 0.942 16.476 1.08 16.344L 5.031 12.384C 5.361 12.048 5.655 11.727 5.913 11.421C 6.177 11.115 6.396 10.812 6.57 10.512C 6.744 10.212 6.876 9.909 6.966 9.603C 7.062 9.291 7.11 8.964 7.11 8.622C 7.11 8.31 7.065 8.037 6.975 7.803C 6.885 7.563 6.756 7.362 6.588 7.2C 6.426 7.038 6.228 6.918 5.994 6.84C 5.766 6.756 5.508 6.714 5.22 6.714C 4.956 6.714 4.71 6.753 4.482 6.831C 4.26 6.903 4.062 7.008 3.888 7.146C 3.714 7.278 3.567 7.434 3.447 7.614C 3.327 7.794 3.237 7.992 3.177 8.208C 3.075 8.484 2.943 8.667 2.781 8.757C 2.619 8.847 2.385 8.868 2.079 8.82L 0.909 8.613C 0.999 7.989 1.173 7.443 1.431 6.975C 1.689 6.501 2.01 6.108 2.394 5.796C 2.784 5.478 3.228 5.241 3.726 5.085C 4.23 4.923 4.77 4.842 5.346 4.842C 5.946 4.842 6.495 4.932 6.993 5.112C 7.491 5.286 7.917 5.535 8.271 5.859C 8.625 6.183 8.901 6.573 9.099 7.029C 9.297 7.485 9.396 7.992 9.396 8.55C 9.396 9.03 9.324 9.474 9.18 9.882C 9.042 10.29 8.853 10.68 8.613 11.052C 8.379 11.424 8.103 11.784 7.785 12.132C 7.467 12.48 7.134 12.834 6.786 13.194L 3.852 16.191C 4.134 16.107 4.413 16.044 4.689 16.002C 4.971 15.954 5.238 15.93 5.49 15.93L 8.829 15.93Z" transform="translate(25 12)" fill="white"/>
</g>
</g>
</g>
<defs>

<clipPath id="clip0">
<rect width="51" height="39" fill="white"/>
</clipPath>

</defs>
</svg>

