<svg width="51" height="39" viewBox="0 0 51 39" version="1.1" xmlns="http://www.w3.org/2000/svg" xmlns:xlink="http://www.w3.org/1999/xlink">
<g id="Canvas" fill="none">
<g id="Frame" clip-path="url(#clip0)">
<g id="Ellipse">
<circle cx="15" cy="15" r="15" transform="translate(16 9)" fill="#00AEFF"/>
</g>
<g id="3">
<path d="M 0.972 8.613C 1.062 7.989 1.236 7.443 1.494 6.975C 1.752 6.501 2.073 6.108 2.457 5.796C 2.847 5.478 3.291 5.241 3.789 5.085C 4.293 4.923 4.833 4.842 5.409 4.842C 6.009 4.842 6.549 4.929 7.029 5.103C 7.515 5.271 7.929 5.508 8.271 5.814C 8.613 6.114 8.874 6.468 9.054 6.876C 9.24 7.284 9.333 7.725 9.333 8.199C 9.333 8.613 9.285 8.979 9.189 9.297C 9.099 9.609 8.967 9.882 8.793 10.116C 8.619 10.35 8.403 10.548 8.145 10.71C 7.887 10.872 7.596 11.007 7.272 11.115C 8.052 11.361 8.634 11.736 9.018 12.24C 9.402 12.744 9.594 13.377 9.594 14.139C 9.594 14.787 9.474 15.36 9.234 15.858C 8.994 16.356 8.67 16.776 8.262 17.118C 7.854 17.454 7.38 17.709 6.84 17.883C 6.306 18.057 5.739 18.144 5.139 18.144C 4.485 18.144 3.915 18.069 3.429 17.919C 2.943 17.769 2.52 17.547 2.16 17.253C 1.8 16.959 1.494 16.599 1.242 16.173C 0.99 15.747 0.774 15.255 0.594 14.697L 1.575 14.292C 1.833 14.184 2.073 14.157 2.295 14.211C 2.523 14.259 2.688 14.379 2.79 14.571C 2.898 14.781 3.015 14.988 3.141 15.192C 3.273 15.396 3.429 15.579 3.609 15.741C 3.789 15.897 3.999 16.026 4.239 16.128C 4.485 16.224 4.776 16.272 5.112 16.272C 5.49 16.272 5.82 16.212 6.102 16.092C 6.384 15.966 6.618 15.804 6.804 15.606C 6.996 15.408 7.137 15.189 7.227 14.949C 7.323 14.703 7.371 14.457 7.371 14.211C 7.371 13.899 7.338 13.617 7.272 13.365C 7.206 13.107 7.068 12.888 6.858 12.708C 6.648 12.528 6.345 12.387 5.949 12.285C 5.559 12.183 5.034 12.132 4.374 12.132L 4.374 10.548C 4.92 10.542 5.373 10.491 5.733 10.395C 6.093 10.299 6.378 10.167 6.588 9.999C 6.804 9.825 6.954 9.618 7.038 9.378C 7.122 9.138 7.164 8.874 7.164 8.586C 7.164 7.974 6.993 7.509 6.651 7.191C 6.309 6.873 5.853 6.714 5.283 6.714C 5.019 6.714 4.776 6.753 4.554 6.831C 4.332 6.903 4.131 7.008 3.951 7.146C 3.777 7.278 3.63 7.434 3.51 7.614C 3.39 7.794 3.3 7.992 3.24 8.208C 3.138 8.484 3.003 8.667 2.835 8.757C 2.673 8.847 2.442 8.868 2.142 8.82L 0.972 8.613Z" transform="translate(25 12)" fill="white"/>
</g>
</g>
</g>
<defs>

<clipPath id="clip0">
<rect width="51" height="39" fill="white"/>
</clipPath>

</defs>
</svg>

