<svg width="29" height="29" viewBox="0 0 29 29" version="1.1" xmlns="http://www.w3.org/2000/svg" xmlns:xlink="http://www.w3.org/1999/xlink">
<title>pay</title>
<desc>Created using Figma</desc>
<g id="Canvas" transform="translate(-2738 -2660)">
<g id="pay">
<g id="Group">
<g id="Group">
<g id="Vector">
<use xlink:href="#path0_fill" transform="translate(2739 2678.55)" fill="#828282"/>
<mask id="mask0_outline_out">
<rect id="mask0_outline_inv" fill="white" x="-1" y="-1" width="24" height="11" transform="translate(2739 2678.55)"/>
<use xlink:href="#path0_fill" fill="black" transform="translate(2739 2678.55)"/>
</mask>
<g mask="url(#mask0_outline_out)">
<use xlink:href="#path1_stroke_2x" transform="translate(2739 2678.55)" fill="#828282"/>
</g>
</g>
</g>
</g>
<g id="Group">
<g id="Group">
<g id="Vector">
<use xlink:href="#path2_fill" transform="translate(2752.56 2666.54)" fill="#828282"/>
<mask id="mask1_outline_out">
<rect id="mask1_outline_inv" fill="white" x="-1" y="-1" width="15" height="8" transform="translate(2752.56 2666.54)"/>
<use xlink:href="#path2_fill" fill="black" transform="translate(2752.56 2666.54)"/>
</mask>
<g mask="url(#mask1_outline_out)">
<use xlink:href="#path3_stroke_2x" transform="translate(2752.56 2666.54)" fill="#828282"/>
</g>
</g>
</g>
</g>
<g id="Group">
<g id="Group">
<g id="Vector">
<use xlink:href="#path4_fill" transform="translate(2748.98 2661)" fill="#828282"/>
<mask id="mask2_outline_out">
<rect id="mask2_outline_inv" fill="white" x="-1" y="-1" width="19" height="7" transform="translate(2748.98 2661)"/>
<use xlink:href="#path4_fill" fill="black" transform="translate(2748.98 2661)"/>
</mask>
<g mask="url(#mask2_outline_out)">
<use xlink:href="#path5_stroke_2x" transform="translate(2748.98 2661)" fill="#828282"/>
</g>
</g>
</g>
</g>
<g id="Group">
<g id="Group">
<g id="Vector">
<use xlink:href="#path6_fill" transform="translate(2751.72 2663.72)" fill="#828282"/>
<mask id="mask3_outline_out">
<rect id="mask3_outline_inv" fill="white" x="-1" y="-1" width="7" height="4" transform="translate(2751.72 2663.72)"/>
<use xlink:href="#path6_fill" fill="black" transform="translate(2751.72 2663.72)"/>
</mask>
<g mask="url(#mask3_outline_out)">
<use xlink:href="#path7_stroke_2x" transform="translate(2751.72 2663.72)" fill="#828282"/>
</g>
</g>
</g>
</g>
<g id="Group">
<g id="Group">
<g id="Vector">
<use xlink:href="#path8_fill" transform="translate(2747.91 2666.86)" fill="#828282"/>
<mask id="mask4_outline_out">
<rect id="mask4_outline_inv" fill="white" x="-1" y="-1" width="5" height="6" transform="translate(2747.91 2666.86)"/>
<use xlink:href="#path8_fill" fill="black" transform="translate(2747.91 2666.86)"/>
</mask>
<g mask="url(#mask4_outline_out)">
<use xlink:href="#path9_stroke_2x" transform="translate(2747.91 2666.86)" fill="#828282"/>
</g>
</g>
</g>
</g>
<g id="Group">
<g id="Group">
<g id="Vector">
<use xlink:href="#path10_fill" transform="translate(2745.24 2664.61)" fill="#828282"/>
<mask id="mask5_outline_out">
<rect id="mask5_outline_inv" fill="white" x="-1" y="-1" width="10" height="11" transform="translate(2745.24 2664.61)"/>
<use xlink:href="#path10_fill" fill="black" transform="translate(2745.24 2664.61)"/>
</mask>
<g mask="url(#mask5_outline_out)">
<use xlink:href="#path11_stroke_2x" transform="translate(2745.24 2664.61)" fill="#828282"/>
</g>
</g>
</g>
</g>
<g id="Group">
<g id="Group">
<g id="Vector">
<use xlink:href="#path12_fill" transform="translate(2749.25 2666.41)" fill="#828282"/>
<mask id="mask6_outline_out">
<rect id="mask6_outline_inv" fill="white" x="-1" y="-1" width="2" height="2" transform="translate(2749.25 2666.41)"/>
<use xlink:href="#path12_fill" fill="black" transform="translate(2749.25 2666.41)"/>
</mask>
<g mask="url(#mask6_outline_out)">
<use xlink:href="#path13_stroke_2x" transform="translate(2749.25 2666.41)" fill="#828282"/>
</g>
</g>
</g>
</g>
</g>
</g>
<defs>
<path id="path0_fill" d="M 22.5809 1.68681L 21.0708 0.134858C 20.9164 -0.0240478 20.6702 -0.0450764 20.4917 0.0853773L 13.9121 4.97964L 11.5822 3.87303L 13.627 3.64361C 13.8519 3.61617 14.0206 3.42257 14.019 3.19377L 14.019 1.25046C 14.019 1.00204 13.8195 0.800623 13.5735 0.800623L 11.3461 0.800623L 7.59528 0.41376C 7.51922 0.406282 7.44248 0.418652 7.37255 0.449747L 4.81554 1.55635L 0 1.55635L 0 2.45603L 4.90909 2.45603C 4.97029 2.45654 5.03098 2.44428 5.08728 2.42005L 7.62201 1.29994L 11.2793 1.67781L 13.1459 1.67781L 13.1459 2.79341L 11.4976 3.00034L 9.10543 2.74393C 8.88993 2.72296 8.69069 2.86151 8.63323 3.07232C 8.57521 3.28233 8.67471 3.50416 8.86933 3.59863L 13.8096 5.89281C 13.9553 5.95973 14.1254 5.94258 14.2551 5.84783L 20.7322 1.04354L 21.6232 1.9792L 14.1793 8.54687L 12.1614 8.54687L 5.0561 5.87932C 5.00643 5.85947 4.95358 5.84878 4.90018 5.84783L 0 5.84783L 0 6.74751L 4.82445 6.74751L 11.9253 9.41956C 11.9752 9.43789 12.028 9.447 12.0812 9.44655L 14.3442 9.44655C 14.4525 9.44638 14.557 9.4064 14.6382 9.33409L 22.5587 2.34357C 22.5662 2.33694 22.5735 2.33008 22.5805 2.32299C 22.7546 2.14744 22.7548 1.86258 22.5809 1.68681Z"/>
<path id="path1_stroke_2x" d="M 22.5809 1.68681L 22.5093 1.75655L 22.5098 1.75713L 22.5809 1.68681ZM 21.0708 0.134858L 20.9991 0.204534L 20.9991 0.204597L 21.0708 0.134858ZM 20.4917 0.0853773L 20.4327 0.00462525L 20.432 0.00514113L 20.4917 0.0853773ZM 13.9121 4.97964L 13.8692 5.06997L 13.9235 5.09577L 13.9717 5.05987L 13.9121 4.97964ZM 11.5822 3.87303L 11.5711 3.77365L 11.2223 3.81279L 11.5393 3.96336L 11.5822 3.87303ZM 13.627 3.64361L 13.6381 3.74299L 13.6391 3.74288L 13.627 3.64361ZM 14.019 3.19377L 13.919 3.19377L 13.919 3.19448L 14.019 3.19377ZM 11.3461 0.800623L 11.3358 0.900623L 11.3461 0.900623L 11.3461 0.800623ZM 7.59528 0.41376L 7.60554 0.314287L 7.60507 0.31424L 7.59528 0.41376ZM 7.37255 0.449747L 7.41227 0.541525L 7.41317 0.541122L 7.37255 0.449747ZM 4.81554 1.55635L 4.81554 1.65635L 4.83625 1.65635L 4.85526 1.64813L 4.81554 1.55635ZM 0 1.55635L 0 1.45635L -0.1 1.45635L -0.1 1.55635L 0 1.55635ZM 0 2.45603L -0.1 2.45603L -0.1 2.55603L 0 2.55603L 0 2.45603ZM 4.90909 2.45603L 4.90992 2.35603L 4.90909 2.35603L 4.90909 2.45603ZM 5.08728 2.42005L 5.12682 2.5119L 5.1277 2.51151L 5.08728 2.42005ZM 7.62201 1.29994L 7.63229 1.20047L 7.60588 1.19775L 7.58159 1.20848L 7.62201 1.29994ZM 11.2793 1.67781L 11.269 1.77781L 11.2793 1.77781L 11.2793 1.67781ZM 13.1459 1.67781L 13.2459 1.67781L 13.2459 1.57781L 13.1459 1.57781L 13.1459 1.67781ZM 13.1459 2.79341L 13.1583 2.89263L 13.2459 2.88164L 13.2459 2.79341L 13.1459 2.79341ZM 11.4976 3.00034L 11.4869 3.09977L 11.4985 3.10101L 11.5101 3.09956L 11.4976 3.00034ZM 9.10543 2.74393L 9.11609 2.6445L 9.11512 2.6444L 9.10543 2.74393ZM 8.63323 3.07232L 8.72962 3.09895L 8.72971 3.09862L 8.63323 3.07232ZM 8.86933 3.59863L 8.82565 3.6886L 8.82721 3.68933L 8.86933 3.59863ZM 13.8096 5.89281L 13.7675 5.98351L 13.7679 5.98369L 13.8096 5.89281ZM 14.2551 5.84783L 14.3141 5.92858L 14.3146 5.92815L 14.2551 5.84783ZM 20.7322 1.04354L 20.8046 0.974577L 20.7437 0.910541L 20.6726 0.963218L 20.7322 1.04354ZM 21.6232 1.9792L 21.6893 2.05419L 21.7672 1.98547L 21.6956 1.91025L 21.6232 1.9792ZM 14.1793 8.54687L 14.1793 8.64687L 14.2172 8.64687L 14.2455 8.62186L 14.1793 8.54687ZM 12.1614 8.54687L 12.1262 8.64049L 12.1432 8.64687L 12.1614 8.64687L 12.1614 8.54687ZM 5.0561 5.87932L 5.01898 5.9722L 5.02095 5.97294L 5.0561 5.87932ZM 4.90018 5.84783L 4.90197 5.74783L 4.90018 5.74783L 4.90018 5.84783ZM 0 5.84783L 0 5.74783L -0.1 5.74783L -0.1 5.84783L 0 5.84783ZM 0 6.74751L -0.1 6.74751L -0.1 6.84751L 0 6.84751L 0 6.74751ZM 4.82445 6.74751L 4.85967 6.65392L 4.84264 6.64751L 4.82445 6.64751L 4.82445 6.74751ZM 11.9253 9.41956L 11.89 9.51316L 11.8908 9.51344L 11.9253 9.41956ZM 12.0812 9.44655L 12.0812 9.34655L 12.0803 9.34655L 12.0812 9.44655ZM 14.3442 9.44655L 14.3442 9.54655L 14.3443 9.54655L 14.3442 9.44655ZM 14.6382 9.33409L 14.572 9.25911L 14.5717 9.25942L 14.6382 9.33409ZM 22.5587 2.34357L 22.6248 2.41855L 22.6248 2.41855L 22.5587 2.34357ZM 22.5805 2.32299L 22.5095 2.25257L 22.5094 2.25263L 22.5805 2.32299ZM 22.6526 1.61707L 21.1425 0.0651194L 20.9991 0.204597L 22.5093 1.75655L 22.6526 1.61707ZM 21.1425 0.065182C 20.9535 -0.129382 20.6516 -0.1553 20.4327 0.00462827L 20.5507 0.166126C 20.6889 0.0651468 20.8793 0.081286 20.9991 0.204534L 21.1425 0.065182ZM 20.432 0.00514113L 13.8524 4.8994L 13.9717 5.05987L 20.5514 0.165613L 20.432 0.00514113ZM 13.955 4.88931L 11.6252 3.7827L 11.5393 3.96336L 13.8692 5.06997L 13.955 4.88931ZM 11.5934 3.97241L 13.6381 3.74299L 13.6158 3.54424L 11.5711 3.77365L 11.5934 3.97241ZM 13.6391 3.74288C 13.9153 3.70919 14.1209 3.47189 14.119 3.19307L 13.919 3.19448C 13.9202 3.37325 13.7886 3.52316 13.6149 3.54435L 13.6391 3.74288ZM 14.119 3.19377L 14.119 1.25046L 13.919 1.25046L 13.919 3.19377L 14.119 3.19377ZM 14.119 1.25046C 14.119 0.947733 13.8757 0.700623 13.5735 0.700623L 13.5735 0.900623C 13.7634 0.900623 13.919 1.05635 13.919 1.25046L 14.119 1.25046ZM 13.5735 0.700623L 11.3461 0.700623L 11.3461 0.900623L 13.5735 0.900623L 13.5735 0.700623ZM 11.3564 0.701151L 7.60554 0.314288L 7.58502 0.513233L 11.3359 0.900096L 11.3564 0.701151ZM 7.60507 0.31424C 7.51179 0.305069 7.41769 0.320239 7.33192 0.358371L 7.41317 0.541122C 7.46728 0.517064 7.52665 0.507494 7.5855 0.513281L 7.60507 0.31424ZM 7.33283 0.357972L 4.77582 1.46458L 4.85526 1.64813L 7.41226 0.541521L 7.33283 0.357972ZM 4.81554 1.45635L 0 1.45635L 0 1.65635L 4.81554 1.65635L 4.81554 1.45635ZM -0.1 1.55635L -0.1 2.45603L 0.1 2.45603L 0.1 1.55635L -0.1 1.55635ZM 0 2.55603L 4.90909 2.55603L 4.90909 2.35603L 0 2.35603L 0 2.55603ZM 4.90826 2.55603C 4.98336 2.55665 5.0578 2.54161 5.12682 2.5119L 5.04774 2.3282C 5.00417 2.34695 4.95722 2.35643 4.90992 2.35604L 4.90826 2.55603ZM 5.1277 2.51151L 7.66243 1.39141L 7.58159 1.20848L 5.04686 2.32858L 5.1277 2.51151ZM 7.61173 1.39941L 11.269 1.77728L 11.2896 1.57834L 7.63229 1.20047L 7.61173 1.39941ZM 11.2793 1.77781L 13.1459 1.77781L 13.1459 1.57781L 11.2793 1.57781L 11.2793 1.77781ZM 13.0459 1.67781L 13.0459 2.79341L 13.2459 2.79341L 13.2459 1.67781L 13.0459 1.67781ZM 13.1334 2.69419L 11.4852 2.90112L 11.5101 3.09956L 13.1583 2.89263L 13.1334 2.69419ZM 11.5083 2.90091L 9.11609 2.6445L 9.09477 2.84336L 11.4869 3.09977L 11.5083 2.90091ZM 9.11512 2.6444C 8.85045 2.61864 8.60686 2.78884 8.53675 3.04602L 8.72971 3.09862C 8.77453 2.93418 8.92941 2.82727 9.09574 2.84346L 9.11512 2.6444ZM 8.53684 3.04569C 8.46611 3.3017 8.58719 3.57283 8.82566 3.68859L 8.913 3.50867C 8.76224 3.43549 8.6843 3.26297 8.72962 3.09895L 8.53684 3.04569ZM 8.82721 3.68933L 13.7675 5.98351L 13.8517 5.80212L 8.91145 3.50793L 8.82721 3.68933ZM 13.7679 5.98369C 13.9466 6.06575 14.1552 6.04467 14.3141 5.92858L 14.1961 5.76708C 14.0956 5.84049 13.9641 5.85371 13.8513 5.80194L 13.7679 5.98369ZM 14.3146 5.92815L 20.7918 1.12385L 20.6726 0.963218L 14.1955 5.76751L 14.3146 5.92815ZM 20.6598 1.11249L 21.5507 2.04816L 21.6956 1.91025L 20.8046 0.974577L 20.6598 1.11249ZM 21.557 1.90422L 14.1132 8.47188L 14.2455 8.62186L 21.6893 2.05419L 21.557 1.90422ZM 14.1793 8.44687L 12.1614 8.44687L 12.1614 8.64687L 14.1793 8.64687L 14.1793 8.44687ZM 12.1965 8.45325L 5.09124 5.7857L 5.02095 5.97294L 12.1262 8.64049L 12.1965 8.45325ZM 5.09321 5.78646C 5.03233 5.76213 4.96752 5.74902 4.90197 5.74784L 4.89839 5.94781C 4.93965 5.94855 4.98053 5.95681 5.01899 5.97218L 5.09321 5.78646ZM 4.90018 5.74783L 0 5.74783L 0 5.94783L 4.90018 5.94783L 4.90018 5.74783ZM -0.1 5.84783L -0.1 6.74751L 0.1 6.74751L 0.1 5.84783L -0.1 5.84783ZM 0 6.84751L 4.82445 6.84751L 4.82445 6.64751L 0 6.64751L 0 6.84751ZM 4.78923 6.8411L 11.89 9.51315L 11.9605 9.32597L 4.85967 6.65392L 4.78923 6.8411ZM 11.8908 9.51344C 11.9521 9.53593 12.0169 9.5471 12.082 9.54655L 12.0803 9.34655C 12.0391 9.3469 11.9983 9.33985 11.9597 9.32568L 11.8908 9.51344ZM 12.0812 9.54655L 14.3442 9.54655L 14.3442 9.34655L 12.0812 9.34655L 12.0812 9.54655ZM 14.3443 9.54655C 14.4772 9.54634 14.6053 9.49728 14.7047 9.40876L 14.5717 9.25942C 14.5087 9.31552 14.4277 9.34642 14.344 9.34655L 14.3443 9.54655ZM 14.7044 9.40907L 22.6248 2.41855L 22.4925 2.2686L 14.572 9.25912L 14.7044 9.40907ZM 22.6248 2.41855C 22.6339 2.41052 22.6428 2.40213 22.6515 2.39336L 22.5094 2.25263C 22.5041 2.25803 22.4984 2.26335 22.4925 2.2686L 22.6248 2.41855ZM 22.6515 2.39341C 22.8642 2.17891 22.8644 1.83126 22.652 1.61649L 22.5098 1.75713C 22.6451 1.89391 22.645 2.11597 22.5095 2.25257L 22.6515 2.39341Z"/>
<path id="path2_fill" d="M 10.2065 5.7112L 7.85444 3.24158C 7.77955 3.16139 7.67809 3.11174 7.56934 3.10213L 2.75825 2.65229L 0.922911 2.65229L 1.01201 1.30277L 2.7538 0.947392L 5.18607 1.4962C 5.23619 1.50491 5.28741 1.50491 5.33753 1.4962L 7.70298 1.2128L 7.59607 0.313117L 5.30635 0.560529L 2.85626 0.011724C 2.79634 -0.00390793 2.73353 -0.00390793 2.67361 0.011724L 0.504169 0.461564C 0.304431 0.500194 0.155978 0.670459 0.143337 0.875417L 0.000786805 3.06614C 0.000229966 3.07542 -4.88744e-05 3.08464 6.80952e-06 3.09392C 0.000452281 3.34234 0.200246 3.54342 0.446258 3.54297L 2.71816 3.54297L 7.32433 3.96582L 9.69424 6.47143C 9.77793 6.56005 9.89375 6.61043 10.015 6.61088L 13.1689 6.61088L 13.1689 5.7112L 10.2065 5.7112Z"/>
<path id="path3_stroke_2x" d="M 7.85444 3.24158L 7.78136 3.30984L 7.78203 3.31054L 7.85444 3.24158ZM 7.56934 3.10213L 7.56003 3.20169L 7.56053 3.20174L 7.56934 3.10213ZM 2.75825 2.65229L 2.7676 2.55229L 2.75825 2.55229L 2.75825 2.65229ZM 0.922911 2.65229L 0.823128 2.6457L 0.816091 2.75229L 0.922911 2.75229L 0.922911 2.65229ZM 1.01201 1.30277L 0.992014 1.20478L 0.917249 1.22004L 0.912223 1.29618L 1.01201 1.30277ZM 2.7538 0.947392L 2.77581 0.849844L 2.75485 0.845116L 2.73381 0.84941L 2.7538 0.947392ZM 5.18607 1.4962L 5.16403 1.59387L 5.16894 1.59472L 5.18607 1.4962ZM 5.33753 1.4962L 5.32562 1.39677L 5.32039 1.39768L 5.33753 1.4962ZM 7.70298 1.2128L 7.71488 1.31209L 7.81407 1.3002L 7.80228 1.201L 7.70298 1.2128ZM 7.59607 0.313117L 7.69537 0.301317L 7.68369 0.203067L 7.58533 0.213696L 7.59607 0.313117ZM 5.30635 0.560529L 5.28449 0.658111L 5.30064 0.661728L 5.31709 0.65995L 5.30635 0.560529ZM 2.85626 0.011724L 2.831 0.108544L 2.8344 0.109306L 2.85626 0.011724ZM 2.67361 0.011724L 2.69394 0.109767L 2.69886 0.108485L 2.67361 0.011724ZM 0.504169 0.461564L 0.523159 0.559754L 0.524472 0.559481L 0.504169 0.461564ZM 0.143337 0.875417L 0.243127 0.881911L 0.243148 0.881573L 0.143337 0.875417ZM 0.000786805 3.06614L -0.0990034 3.05965L -0.0990336 3.06015L 0.000786805 3.06614ZM 6.80952e-06 3.09392L 0.100008 3.09374L 0.100005 3.09332L 6.80952e-06 3.09392ZM 0.446258 3.54297L 0.446258 3.44297L 0.446075 3.44297L 0.446258 3.54297ZM 2.71816 3.54297L 2.72734 3.44297L 2.71816 3.44297L 2.71816 3.54297ZM 7.32433 3.96582L 7.39698 3.8971L 7.37105 3.86969L 7.33347 3.86624L 7.32433 3.96582ZM 9.69424 6.47143L 9.76694 6.40277L 9.76689 6.40271L 9.69424 6.47143ZM 10.015 6.61088L 10.0146 6.71088L 10.015 6.71088L 10.015 6.61088ZM 13.1689 6.61088L 13.1689 6.71088L 13.2689 6.71088L 13.2689 6.61088L 13.1689 6.61088ZM 13.1689 5.7112L 13.2689 5.7112L 13.2689 5.6112L 13.1689 5.6112L 13.1689 5.7112ZM 10.2789 5.64223L 7.92685 3.17261L 7.78203 3.31054L 10.1341 5.78017L 10.2789 5.64223ZM 7.92752 3.17332C 7.83591 3.07523 7.71161 3.01432 7.57815 3.00251L 7.56053 3.20174C 7.64457 3.20917 7.72318 3.24755 7.78136 3.30984L 7.92752 3.17332ZM 7.57865 3.00256L 2.76756 2.55272L 2.74894 2.75185L 7.56003 3.20169L 7.57865 3.00256ZM 2.75825 2.55229L 0.922911 2.55229L 0.922911 2.75229L 2.75825 2.75229L 2.75825 2.55229ZM 1.02269 2.65887L 1.11179 1.30935L 0.912223 1.29618L 0.823128 2.6457L 1.02269 2.65887ZM 1.032 1.40075L 2.77379 1.04537L 2.73381 0.84941L 0.992014 1.20478L 1.032 1.40075ZM 2.73179 1.04494L 5.16406 1.59374L 5.20808 1.39865L 2.77581 0.849844L 2.73179 1.04494ZM 5.16894 1.59472C 5.23039 1.60541 5.29321 1.60541 5.35466 1.59472L 5.32039 1.39768C 5.28162 1.40442 5.24198 1.40442 5.2032 1.39768L 5.16894 1.59472ZM 5.34942 1.59549L 7.71488 1.31209L 7.69108 1.11351L 5.32563 1.39691L 5.34942 1.59549ZM 7.80228 1.201L 7.69537 0.301317L 7.49677 0.324917L 7.60368 1.2246L 7.80228 1.201ZM 7.58533 0.213696L 5.2956 0.461108L 5.31709 0.65995L 7.60681 0.412538L 7.58533 0.213696ZM 5.3282 0.462947L 2.87811 -0.085858L 2.8344 0.109306L 5.28449 0.658111L 5.3282 0.462947ZM 2.8815 -0.085037C 2.80503 -0.104988 2.72484 -0.104988 2.64837 -0.085037L 2.69886 0.108485C 2.74222 0.0971717 2.78765 0.0971717 2.83101 0.108485L 2.8815 -0.085037ZM 2.65331 -0.0861932L 0.483865 0.363647L 0.524472 0.559481L 2.69392 0.109641L 2.65331 -0.0861932ZM 0.48518 0.363384C 0.240074 0.410788 0.0589367 0.619397 0.043527 0.869262L 0.243148 0.881573C 0.253019 0.72152 0.368787 0.589601 0.523157 0.559745L 0.48518 0.363384ZM 0.0435484 0.868924L -0.0990022 3.05965L 0.100576 3.07263L 0.243126 0.881911L 0.0435484 0.868924ZM -0.0990336 3.06015C -0.0997087 3.0714 -0.100062 3.08283 -0.0999914 3.09452L 0.100005 3.09332C 0.0999638 3.08645 0.100169 3.07944 0.100607 3.07213L -0.0990336 3.06015ZM -0.099993 3.0941C -0.0994502 3.39681 0.144266 3.64352 0.446441 3.64297L 0.446075 3.44297C 0.256227 3.44332 0.100355 3.28787 0.100007 3.09374L -0.099993 3.0941ZM 0.446258 3.64297L 2.71816 3.64297L 2.71816 3.44297L 0.446258 3.44297L 0.446258 3.64297ZM 2.70902 3.64255L 7.31519 4.0654L 7.33347 3.86624L 2.7273 3.44339L 2.70902 3.64255ZM 7.25168 4.03454L 9.62159 6.54014L 9.76689 6.40271L 7.39698 3.8971L 7.25168 4.03454ZM 9.62153 6.54009C 9.7239 6.64848 9.8658 6.71033 10.0146 6.71088L 10.0153 6.51088C 9.9217 6.51053 9.83196 6.47162 9.76694 6.40277L 9.62153 6.54009ZM 10.015 6.71088L 13.1689 6.71088L 13.1689 6.51088L 10.015 6.51088L 10.015 6.71088ZM 13.2689 6.61088L 13.2689 5.7112L 13.0689 5.7112L 13.0689 6.61088L 13.2689 6.61088ZM 13.1689 5.6112L 10.2065 5.6112L 10.2065 5.8112L 13.1689 5.8112L 13.1689 5.6112Z"/>
<path id="path4_fill" d="M 13.0078 1.88991C 12.9585 1.84965 12.9005 1.82187 12.8385 1.80894L 5.26547 0.00957628C 5.13717 -0.0175828 5.00359 0.0136811 4.90018 0.0950459L -6.79735e-08 3.69377L 0.525656 4.42251L 5.26101 0.945244L 12.54 2.67263L 16.4735 5.76303L 17.017 5.03879L 13.0078 1.88991Z"/>
<path id="path5_stroke_2x" d="M 13.0078 1.88991L 12.9444 1.96733L 12.946 1.96855L 13.0078 1.88991ZM 12.8385 1.80894L 12.8153 1.90627L 12.8181 1.90683L 12.8385 1.80894ZM 5.26547 0.00957628L 5.28859 -0.0877447L 5.28618 -0.0882557L 5.26547 0.00957628ZM 4.90018 0.0950459L 4.95941 0.17569L 4.96202 0.173634L 4.90018 0.0950459ZM -6.79735e-08 3.69377L -0.0591926 3.61317L -0.139105 3.67186L -0.0811027 3.75227L -6.79735e-08 3.69377ZM 0.525656 4.42251L 0.444553 4.48101L 0.503554 4.5628L 0.584844 4.50311L 0.525656 4.42251ZM 5.26101 0.945244L 5.2841 0.847946L 5.2391 0.837267L 5.20183 0.864641L 5.26101 0.945244ZM 12.54 2.67263L 12.6018 2.594L 12.5845 2.58041L 12.5631 2.57533L 12.54 2.67263ZM 16.4735 5.76303L 16.4117 5.84167L 16.4921 5.90483L 16.5535 5.82305L 16.4735 5.76303ZM 17.017 5.03879L 17.097 5.09881L 17.1557 5.02057L 17.0788 4.96015L 17.017 5.03879ZM 13.0711 1.8125C 13.0095 1.76212 12.9367 1.72728 12.8589 1.71104L 12.8181 1.90683C 12.8643 1.91646 12.9076 1.93717 12.9444 1.96731L 13.0711 1.8125ZM 12.8616 1.71165L 5.28858 -0.0877151L 5.24235 0.106868L 12.8154 1.90623L 12.8616 1.71165ZM 5.28618 -0.0882557C 5.12876 -0.121581 4.96496 -0.0831672 4.83834 0.0164577L 4.96202 0.173634C 5.04222 0.110529 5.14559 0.0864151 5.24476 0.107408L 5.28618 -0.0882557ZM 4.84099 0.0144466L -0.0591926 3.61317L 0.0591925 3.77437L 4.95937 0.175645L 4.84099 0.0144466ZM -0.0811027 3.75227L 0.444553 4.48101L 0.606759 4.36401L 0.0811025 3.63527L -0.0811027 3.75227ZM 0.584844 4.50311L 5.3202 1.02585L 5.20183 0.864641L 0.466468 4.34191L 0.584844 4.50311ZM 5.23792 1.04254L 12.5169 2.76993L 12.5631 2.57533L 5.2841 0.847946L 5.23792 1.04254ZM 12.4782 2.75126L 16.4117 5.84167L 16.5353 5.6844L 12.6018 2.594L 12.4782 2.75126ZM 16.5535 5.82305L 17.097 5.09881L 16.937 4.97877L 16.3935 5.70301L 16.5535 5.82305ZM 17.0788 4.96015L 13.0695 1.81126L 12.946 1.96855L 16.9552 5.11743L 17.0788 4.96015Z"/>
<path id="path6_fill" d="M 3.03811 0.0395578C 2.92196 -0.013186 2.78898 -0.013186 2.67283 0.0395578L -3.39867e-07 1.38908L 0.400924 2.18979L 2.89556 0.93474L 4.93582 1.77594L 5.26547 0.939238L 3.03811 0.0395578Z"/>
<path id="path7_stroke_2x" d="M 3.03811 0.0395578L 2.99673 0.130692L 3.00066 0.132279L 3.03811 0.0395578ZM 2.67283 0.0395578L 2.63145 -0.0515728L 2.62775 -0.0497092L 2.67283 0.0395578ZM -3.39867e-07 1.38908L -0.0450716 1.29981L -0.13404 1.34473L -0.0894177 1.43385L -3.39867e-07 1.38908ZM 0.400924 2.18979L 0.311507 2.23457L 0.356365 2.32415L 0.445867 2.27913L 0.400924 2.18979ZM 2.89556 0.93474L 2.93368 0.842289L 2.89144 0.824873L 2.85062 0.845408L 2.89556 0.93474ZM 4.93582 1.77594L 4.8977 1.86839L 4.99162 1.90711L 5.02886 1.8126L 4.93582 1.77594ZM 5.26547 0.939238L 5.35851 0.975894L 5.39485 0.883649L 5.30292 0.846516L 5.26547 0.939238ZM 3.07946 -0.051495C 2.93703 -0.116168 2.77391 -0.116168 2.63148 -0.051495L 2.71417 0.130611C 2.80405 0.0897964 2.90688 0.0897964 2.99677 0.130611L 3.07946 -0.051495ZM 2.62775 -0.0497092L -0.0450716 1.29981L 0.0450709 1.47835L 2.7179 0.128825L 2.62775 -0.0497092ZM -0.0894177 1.43385L 0.311507 2.23457L 0.490342 2.14502L 0.089417 1.34431L -0.0894177 1.43385ZM 0.445867 2.27913L 2.9405 1.02407L 2.85062 0.845408L 0.355981 2.10046L 0.445867 2.27913ZM 2.85744 1.02719L 4.8977 1.86839L 4.97394 1.68349L 2.93368 0.842289L 2.85744 1.02719ZM 5.02886 1.8126L 5.35851 0.975894L 5.17243 0.902582L 4.84278 1.73928L 5.02886 1.8126ZM 5.30292 0.846516L 3.07556 -0.053164L 3.00066 0.132279L 5.22801 1.03196L 5.30292 0.846516Z"/>
<path id="path8_fill" d="M 2.24072 1.88483L 1.45669 1.76787C 1.10031 1.71389 0.890942 1.57444 0.890942 1.34952C 0.890942 1.1246 1.20277 0.89968 1.62151 0.922173L 1.94225 0.922173C 2.361 0.922173 2.67283 1.14709 2.67283 1.34952L 2.67283 1.47098L 3.56377 1.47098L 3.56377 1.34952C 3.56377 0.584792 2.85101 8.58002e-08 1.94225 8.58002e-08L 1.62151 8.58002e-08C 0.712753 8.58002e-08 0 0.584792 0 1.34952C 0.0731129 2.0511 0.638917 2.59586 1.33641 2.63606L 2.10708 2.75302C 2.46345 2.807 2.67283 2.96895 2.67283 3.17137C 2.67283 3.3738 2.361 3.59872 1.94225 3.59872L 1.62151 3.59872C 1.20277 3.59872 0.890942 3.3738 0.890942 3.17137L 0.890942 3.04992L 0 3.04992L 0 3.17137C 0 3.91361 0.730572 4.4984 1.62151 4.4984L 1.94225 4.4984C 2.85101 4.4984 3.56377 3.91361 3.57713 3.19386C 3.51432 2.48345 2.94584 1.92661 2.24072 1.88483Z"/>
<path id="path9_stroke_2x" d="M 2.24072 1.88483L 2.22591 1.98413L 2.2348 1.98466L 2.24072 1.88483ZM 1.45669 1.76787L 1.44171 1.86674L 1.44194 1.86678L 1.45669 1.76787ZM 1.62151 0.922173L 1.61614 1.02217L 1.62151 1.02217L 1.62151 0.922173ZM 2.67283 1.47098L 2.57283 1.47098L 2.57283 1.57098L 2.67283 1.57098L 2.67283 1.47098ZM 3.56377 1.47098L 3.56377 1.57098L 3.66377 1.57098L 3.66377 1.47098L 3.56377 1.47098ZM 0 1.34952L -0.100542 1.34952L -0.0994614 1.35989L 0 1.34952ZM 1.33641 2.63606L 1.35148 2.53677L 1.34217 2.53623L 1.33641 2.63606ZM 2.10708 2.75302L 2.09207 2.85189L 2.0921 2.85189L 2.10708 2.75302ZM 0.890942 3.04992L 0.990942 3.04992L 0.990942 2.94992L 0.890942 2.94992L 0.890942 3.04992ZM 0 3.04992L 0 2.94992L -0.1 2.94992L -0.1 3.04992L 0 3.04992ZM 3.57713 3.19386L 3.67769 3.19573L 3.67674 3.18506L 3.57713 3.19386ZM 2.25547 1.78592L 1.47144 1.66897L 1.44194 1.86678L 2.22597 1.98374L 2.25547 1.78592ZM 1.47167 1.669C 1.30113 1.64317 1.17733 1.5983 1.09859 1.54163C 1.02382 1.48783 0.990942 1.42519 0.990942 1.34952L 0.790942 1.34952C 0.790942 1.49877 0.862749 1.61832 0.981764 1.70397C 1.0968 1.78675 1.25588 1.8386 1.44171 1.86674L 1.47167 1.669ZM 0.990942 1.34952C 0.990942 1.28456 1.03807 1.19928 1.15224 1.12784C 1.26346 1.05825 1.42533 1.01178 1.61615 1.02203L 1.62688 0.822316C 1.39896 0.810074 1.19554 0.864819 1.04615 0.958295C 0.899732 1.04992 0.790942 1.18957 0.790942 1.34952L 0.990942 1.34952ZM 1.62151 1.02217L 1.94225 1.02217L 1.94225 0.822173L 1.62151 0.822173L 1.62151 1.02217ZM 1.94225 1.02217C 2.13442 1.02217 2.2984 1.07392 2.41152 1.14471C 2.52968 1.21864 2.57283 1.29898 2.57283 1.34952L 2.77283 1.34952C 2.77283 1.19764 2.66006 1.0643 2.51761 0.975164C 2.37014 0.882884 2.16883 0.822173 1.94225 0.822173L 1.94225 1.02217ZM 2.57283 1.34952L 2.57283 1.47098L 2.77283 1.47098L 2.77283 1.34952L 2.57283 1.34952ZM 2.67283 1.57098L 3.56377 1.57098L 3.56377 1.37098L 2.67283 1.37098L 2.67283 1.57098ZM 3.66377 1.47098L 3.66377 1.34952L 3.46377 1.34952L 3.46377 1.47098L 3.66377 1.47098ZM 3.66377 1.34952C 3.66377 0.512795 2.88783 -0.0999999 1.94225 -0.0999999L 1.94225 0.1C 2.8142 0.1 3.46377 0.656789 3.46377 1.34952L 3.66377 1.34952ZM 1.94225 -0.0999999L 1.62151 -0.0999999L 1.62151 0.1L 1.94225 0.1L 1.94225 -0.0999999ZM 1.62151 -0.0999999C 0.675938 -0.0999999 -0.1 0.512795 -0.1 1.34952L 0.1 1.34952C 0.1 0.656789 0.749569 0.1 1.62151 0.1L 1.62151 -0.0999999ZM -0.0994614 1.35989C -0.0213422 2.10951 0.583497 2.69283 1.33066 2.7359L 1.34217 2.53623C 0.694336 2.49889 0.167568 1.9927 0.0994614 1.33916L -0.0994614 1.35989ZM 1.32141 2.73493L 2.09207 2.85189L 2.12208 2.65415L 1.35142 2.5372L 1.32141 2.73493ZM 2.0921 2.85189C 2.25992 2.87731 2.38407 2.92699 2.46366 2.98658C 2.54175 3.04504 2.57283 3.10891 2.57283 3.17137L 2.77283 3.17137C 2.77283 3.03141 2.69921 2.91309 2.58352 2.82648C 2.46934 2.74099 2.31061 2.68271 2.12205 2.65415L 2.0921 2.85189ZM 2.57283 3.17137C 2.57283 3.22192 2.52968 3.30225 2.41152 3.37619C 2.2984 3.44697 2.13442 3.49872 1.94225 3.49872L 1.94225 3.69872C 2.16883 3.69872 2.37014 3.63801 2.51761 3.54573C 2.66006 3.4566 2.77283 3.32326 2.77283 3.17137L 2.57283 3.17137ZM 1.94225 3.49872L 1.62151 3.49872L 1.62151 3.69872L 1.94225 3.69872L 1.94225 3.49872ZM 1.62151 3.49872C 1.42934 3.49872 1.26537 3.44697 1.15224 3.37619C 1.03409 3.30225 0.990942 3.22192 0.990942 3.17137L 0.790942 3.17137C 0.790942 3.32326 0.90371 3.4566 1.04615 3.54573C 1.19363 3.63801 1.39494 3.69872 1.62151 3.69872L 1.62151 3.49872ZM 0.990942 3.17137L 0.990942 3.04992L 0.790942 3.04992L 0.790942 3.17137L 0.990942 3.17137ZM 0.890942 2.94992L 0 2.94992L 0 3.14992L 0.890942 3.14992L 0.890942 2.94992ZM -0.1 3.04992L -0.1 3.17137L 0.1 3.17137L 0.1 3.04992L -0.1 3.04992ZM -0.1 3.17137C -0.1 3.98721 0.695708 4.5984 1.62151 4.5984L 1.62151 4.3984C 0.765437 4.3984 0.1 3.84001 0.1 3.17137L -0.1 3.17137ZM 1.62151 4.5984L 1.94225 4.5984L 1.94225 4.3984L 1.62151 4.3984L 1.62151 4.5984ZM 1.94225 4.5984C 2.88623 4.5984 3.66242 3.9874 3.67712 3.19572L 3.47715 3.19201C 3.46512 3.83981 2.8158 4.3984 1.94225 4.3984L 1.94225 4.5984ZM 3.67674 3.18506C 3.60963 2.42601 3.00196 1.82976 2.24663 1.78501L 2.2348 1.98466C 2.88973 2.02346 3.41901 2.5409 3.47752 3.20267L 3.67674 3.18506Z"/>
<path id="path10_fill" d="M 7.98724 4.97073C 7.82525 6.1943 7.05353 7.24861 5.94275 7.76396C 4.1543 8.59375 2.03831 7.80231 1.21658 5.99631C 0.394854 4.19032 1.17861 2.05358 2.96706 1.22379C 4.75551 0.394004 6.8715 1.18544 7.69323 2.99144L 8.49953 2.61357C 7.77147 1.02035 6.19244 8.69776e-08 4.45477 8.69776e-08C 1.99449 -5.6143e-05 -2.94221e-08 2.01393 -2.94221e-08 4.49835C -5.57133e-05 6.98276 1.99437 8.99675 4.45465 8.9968C 6.69059 9.00074 8.58306 7.33031 8.87818 5.09219L 7.98724 4.97073Z"/>
<path id="path11_stroke_2x" d="M 7.98724 4.97073L 8.00075 4.87165L 7.90128 4.85809L 7.8881 4.95761L 7.98724 4.97073ZM 5.94275 7.76396L 5.90066 7.67325L 5.90066 7.67325L 5.94275 7.76396ZM 1.21658 5.99631L 1.12556 6.03773L 1.21658 5.99631ZM 7.69323 2.99144L 7.60221 3.03285L 7.64409 3.1249L 7.73566 3.08199L 7.69323 2.99144ZM 8.49953 2.61357L 8.54197 2.70412L 8.63165 2.66209L 8.59048 2.57201L 8.49953 2.61357ZM 4.45477 8.69776e-08L 4.45476 0.1L 4.45477 0.1L 4.45477 8.69776e-08ZM -2.94221e-08 4.49835L 0.1 4.49835L 0.1 4.49835L -2.94221e-08 4.49835ZM 4.45465 8.9968L 4.45483 8.8968L 4.45466 8.8968L 4.45465 8.9968ZM 8.87818 5.09219L 8.97732 5.10526L 8.99034 5.00656L 8.89169 4.99311L 8.87818 5.09219ZM 7.8881 4.95761C 7.73057 6.14758 6.98011 7.17244 5.90066 7.67325L 5.98484 7.85467C 7.12695 7.32479 7.91994 6.24102 8.08637 4.98386L 7.8881 4.95761ZM 5.90066 7.67325C 4.16312 8.47941 2.10659 7.71092 1.3076 5.9549L 1.12556 6.03773C 1.97003 7.8937 4.14547 8.70808 5.98484 7.85467L 5.90066 7.67325ZM 1.3076 5.9549C 0.508384 4.19837 1.27106 2.12092 3.00915 1.3145L 2.92497 1.13308C 1.08615 1.98624 0.281325 4.18226 1.12556 6.03773L 1.3076 5.9549ZM 3.00915 1.3145C 4.74669 0.508338 6.80322 1.27683 7.60221 3.03285L 7.78425 2.95002C 6.93978 1.09405 4.76434 0.27967 2.92497 1.13308L 3.00915 1.3145ZM 7.73566 3.08199L 8.54197 2.70412L 8.4571 2.52302L 7.65079 2.90089L 7.73566 3.08199ZM 8.59048 2.57201C 7.84632 0.943561 6.23199 -0.0999999 4.45477 -0.0999999L 4.45477 0.1C 6.15288 0.1 7.69661 1.09714 8.40858 2.65513L 8.59048 2.57201ZM 4.45477 -0.0999999C 1.93834 -0.100057 -0.1 1.95963 -0.1 4.49835L 0.1 4.49835C 0.1 2.06824 2.05063 0.0999451 4.45476 0.1L 4.45477 -0.0999999ZM -0.1 4.49834C -0.100057 7.03706 1.93823 9.09675 4.45465 9.0968L 4.45466 8.8968C 2.05052 8.89675 0.0999455 6.92845 0.1 4.49835L -0.1 4.49834ZM 4.45448 9.0968C 6.74139 9.10083 8.67573 7.39246 8.97732 5.10526L 8.77904 5.07912C 8.49039 7.26817 6.63977 8.90065 4.45483 8.8968L 4.45448 9.0968ZM 8.89169 4.99311L 8.00075 4.87165L 7.97373 5.06982L 8.86467 5.19127L 8.89169 4.99311Z"/>
<path id="path12_fill" d="M 0.890942 0L 0 0L 0 0.89968L 0.890942 0.89968L 0.890942 0Z"/>
<path id="path13_stroke_2x" d="M 0 0L 0 -0.1L -0.1 -0.1L -0.1 0L 0 0ZM 0.890942 0L 0.990942 0L 0.990942 -0.1L 0.890942 -0.1L 0.890942 0ZM 0.890942 0.89968L 0.890942 0.99968L 0.990942 0.99968L 0.990942 0.89968L 0.890942 0.89968ZM 0 0.89968L -0.1 0.89968L -0.1 0.99968L 0 0.99968L 0 0.89968ZM 0 0.1L 0.890942 0.1L 0.890942 -0.1L 0 -0.1L 0 0.1ZM 0.790942 0L 0.790942 0.89968L 0.990942 0.89968L 0.990942 0L 0.790942 0ZM 0.890942 0.79968L 0 0.79968L 0 0.99968L 0.890942 0.99968L 0.890942 0.79968ZM 0.1 0.89968L 0.1 0L -0.1 0L -0.1 0.89968L 0.1 0.89968Z"/>
</defs>
</svg>
