<svg width="27" height="27" viewBox="0 0 27 27" version="1.1" xmlns="http://www.w3.org/2000/svg" xmlns:xlink="http://www.w3.org/1999/xlink">
<title>Vector</title>
<desc>Created using Figma</desc>
<g id="Canvas" transform="translate(-2099 -2661)">
<g id="Vector">
<use xlink:href="#path0_fill" transform="translate(2099 2661)" fill="#828282"/>
</g>
</g>
<defs>
<path id="path0_fill" d="M 26.9808 24.1524L 26.2596 21.6184C 26.2211 21.4832 26.1272 21.3681 25.9986 21.2982C 25.8699 21.2282 25.717 21.2092 25.5735 21.2455L 24.0393 21.6325C 24.0581 20.9524 24.0604 19.8583 23.9574 18.6012C 23.8172 16.8859 22.7173 11.2306 19.6057 7.56385L 19.6057 2.63672C 19.6057 1.93266 19.3143 1.27063 18.7851 0.772453C 18.2559 0.274271 17.5526 0 16.8049 0L 2.80082 0C 1.25645 0 -2.26506e-08 1.18283 -2.26506e-08 2.63672L -2.26506e-08 4.74609C -2.26506e-08 5.03729 0.250841 5.27344 0.560163 5.27344L 4.48131 5.27344L 4.48131 23.6959C 4.48131 23.9871 4.73215 24.2232 5.04147 24.2232L 16.5623 24.2232L 17.2414 26.6091C 17.2799 26.7443 17.3737 26.8594 17.5024 26.9293C 17.5883 26.9761 17.685 27 17.7825 27C 17.8311 27 17.8797 26.9941 17.9275 26.982L 26.5847 24.7982C 26.8835 24.7228 27.0609 24.4337 26.9808 24.1524ZM 19.2649 17.0522C 19.4715 16.9694 19.6055 16.7784 19.6055 16.567L 19.6055 9.38857C 20.514 10.7513 21.2919 12.4285 21.889 14.3249C 22.5486 16.4197 22.7995 18.1803 22.8404 18.6821C 22.9567 20.1016 22.9321 21.328 22.9082 21.9178L 19.8051 22.7006C 19.2074 19.4156 17.4611 17.4616 17.3828 17.3754C 17.3733 17.3651 15.4991 15.5996 15.4991 15.5996L 16.2925 14.8073L 18.6573 16.9473C 18.8192 17.0937 19.0583 17.1351 19.2649 17.0522ZM 1.12033 4.21875L 1.12033 2.63672C 1.12033 1.76439 1.87419 1.05469 2.80082 1.05469L 14.5658 1.05469C 14.2133 1.49571 14.0041 2.04362 14.0041 2.63672L 14.0041 4.21875L 1.12033 4.21875ZM 5.60163 23.1685L 5.60163 5.27344L 14.5642 5.27344C 14.8736 5.27344 15.1244 5.03729 15.1244 4.74609L 15.1244 3.16406L 16.8049 3.16406C 17.1142 3.16406 17.3651 2.92792 17.3651 2.63672C 17.3651 2.34552 17.1142 2.10938 16.8049 2.10938L 15.2208 2.10938C 15.452 1.4956 16.0746 1.05469 16.8049 1.05469C 17.2535 1.05469 17.6754 1.21932 17.9929 1.51828C 18.3105 1.81723 18.4854 2.21442 18.4854 2.63672L 18.4852 15.3288L 15.7647 12.8668C 15.4478 12.5706 15.0277 12.4074 14.5809 12.4074C 14.1321 12.4074 13.7101 12.572 13.3927 12.8708C 13.0753 13.1696 12.9005 13.5668 12.9005 13.9894C 12.9005 14.4119 13.0753 14.8091 13.3927 15.1079L 16.5431 18.0743C 16.6924 18.2457 18.2096 20.05 18.7169 22.9751L 17.9501 23.1685L 5.60163 23.1685ZM 15.4848 14.0764L 14.7066 14.8535L 14.1848 14.3622C 14.079 14.2625 14.0208 14.1302 14.0208 13.9894C 14.0208 13.8486 14.0791 13.7162 14.1849 13.6166C 14.2907 13.517 14.4313 13.4622 14.5808 13.4622C 14.7304 13.4622 14.871 13.517 14.9767 13.6166C 14.9794 13.6191 15.4848 14.0764 15.4848 14.0764ZM 18.1786 25.8268L 17.7473 24.3116L 25.3223 22.4008L 25.7536 23.916L 18.1786 25.8268Z"/>
</defs>
</svg>
